<svg width="1080" height="1080" viewBox="0 0 1080 1080" fill="none" xmlns="http://www.w3.org/2000/svg">
<g clip-path="url(#clip0_346_31)">
<rect width="1080" height="1080" fill="url(#paint0_linear_346_31)"/>
<path d="M454.465 385.303C470.679 398.5 483.045 413.209 491.565 429.43C500.358 445.377 508.877 465.035 517.122 488.405C523.992 507.375 529.488 520.71 533.61 528.408H412.42C410.771 523.734 408.572 515.623 405.824 504.076C403.076 491.429 400.053 480.844 396.755 472.321C393.733 463.798 389.336 456.374 383.565 450.051C374.221 440.153 362.542 433.829 348.527 431.08C334.786 428.056 315.824 426.543 291.641 426.543V528.408H189C191.198 475.07 192.298 425.169 192.298 378.704C192.298 332.239 191.198 282.338 189 229H291.641V336.638C294.389 336.913 298.511 337.051 304.007 337.051C346.878 294.71 378.755 258.693 399.641 229H533.198L405 356.846C423.137 363.995 439.626 373.48 454.465 385.303Z" fill="url(#paint1_linear_346_31)"/>
<path d="M887.296 229C885.372 275.465 884.41 325.366 884.41 378.704C884.41 432.042 885.372 481.943 887.296 528.408H790.425V416.233H638.731V528.408H541.861C544.059 475.07 545.159 425.169 545.159 378.704C545.159 332.239 544.059 282.338 541.861 229H638.731V341.175H790.425V229H887.296Z" fill="url(#paint2_linear_346_31)"/>
<path d="M454.465 694.608C470.679 707.806 483.045 722.515 491.565 738.736C500.358 754.682 508.877 774.341 517.122 797.71C523.992 816.681 529.488 830.016 533.61 837.714H412.42C410.771 833.04 408.572 824.929 405.824 813.382C403.076 800.735 400.053 790.15 396.755 781.627C393.733 773.103 389.336 765.68 383.565 759.356C374.221 749.459 362.542 743.135 348.527 740.386C334.786 737.361 315.824 735.849 291.641 735.849V837.714H189C191.198 784.376 192.298 734.475 192.298 688.01C192.298 641.545 191.198 591.644 189 538.306H291.641V645.944C294.389 646.219 298.511 646.357 304.007 646.357C346.878 604.016 378.755 567.999 399.641 538.306H533.198L405 666.152C423.137 673.301 439.626 682.786 454.465 694.608Z" fill="url(#paint3_linear_346_31)"/>
<path d="M881.937 837.714H777.647V619.138H685.311L684.899 643.057C684.899 663.953 684.349 682.374 683.25 698.32C682.426 713.992 680.502 730.076 677.479 746.572C671.983 776.54 657.968 800.597 635.433 818.743C613.174 836.889 581.983 845.962 541.861 845.962V765.543C552.578 763.343 560.96 758.532 567.006 751.108C573.327 743.41 578.136 731.175 581.433 714.404C583.907 700.932 585.143 670.276 585.143 622.437L584.731 538.306L881.937 538.718V837.714Z" fill="url(#paint4_linear_346_31)"/>
<path d="M520.423 528.408C518.374 522.26 515.625 514.548 512.175 505.272H460.588L452.503 528.408H411.912L457.192 410.948H516.703L562.307 528.408H520.423ZM502.957 480.033C498.861 468.707 494.656 457.382 490.344 446.057L486.463 435.54C482.689 445.356 477.137 460.186 469.806 480.033H502.957Z" fill="url(#paint5_linear_346_31)"/>
<path d="M794.942 411.11L792.193 501.874L831.489 411.11H891C890.245 429.338 889.868 448.861 889.868 469.678C889.868 490.603 890.245 510.18 891 528.408H849.439L852.35 440.07L813.215 528.408H755.322C756.184 507.483 756.615 487.906 756.615 469.678C756.615 451.557 756.184 432.035 755.322 411.11H794.942Z" fill="url(#paint6_linear_346_31)"/>
<path d="M540.475 720.254C540.044 721.44 539.505 722.789 538.858 724.299C538.211 725.701 537.564 727.319 536.917 729.152C530.988 743.821 525.49 757.034 520.423 768.791C515.463 780.44 509.534 793.707 502.634 808.592C496.597 821.535 487.756 831.89 476.113 839.655C464.577 847.529 450.023 851.304 432.45 850.981C430.186 841.597 428.353 834.532 426.952 829.786C425.658 824.932 423.879 819.971 421.615 814.901C427.976 816.304 433.851 817.005 439.242 817.005C444.525 817.005 449.268 816.304 453.473 814.901C445.711 794.947 431.857 763.398 411.912 720.254H452.179L477.892 780.764L482.42 769.924C493.632 743.282 499.939 726.726 501.34 720.254H540.475Z" fill="url(#paint7_linear_346_31)"/>
<path d="M889.425 772.998C889.317 779.469 889.263 789.392 889.263 802.767C889.263 818.838 889.371 830.487 889.586 837.714H851.422L851.583 819.432C851.799 799.37 851.907 783.892 851.907 772.998C851.907 762.643 851.799 747.974 851.583 728.991L851.422 711.517H889.586C889.478 714.969 889.425 720.362 889.425 727.696V772.998ZM785.766 748.729C800.536 748.729 812.125 750.617 820.534 754.392C828.943 758.059 834.819 763.236 838.161 769.924C841.503 776.503 843.174 784.539 843.174 794.03C843.174 807.837 838.97 818.569 830.56 826.227C822.151 833.777 807.22 837.552 785.766 837.552H756.98V837.714H717.199C718.061 816.789 718.492 797.212 718.492 778.984C718.492 760.755 718.061 741.179 717.199 720.254H756.98V748.729H785.766ZM779.297 805.518C786.844 805.518 792.504 805.194 796.277 804.547C800.158 803.792 802.853 802.551 804.363 800.826C805.872 799.1 806.627 796.457 806.627 792.898C806.627 789.339 805.818 786.642 804.201 784.808C802.584 782.975 799.835 781.734 795.954 781.087C792.18 780.332 786.628 779.955 779.297 779.955H756.98V805.518H779.297Z" fill="url(#paint8_linear_346_31)"/>
</g>
<defs>
<linearGradient id="paint0_linear_346_31" x1="540" y1="-101" x2="540" y2="1080" gradientUnits="userSpaceOnUse">
<stop stop-color="white"/>
<stop offset="1" stop-color="#E8E8FE"/>
</linearGradient>
<linearGradient id="paint1_linear_346_31" x1="844.091" y1="229" x2="196.484" y2="806.814" gradientUnits="userSpaceOnUse">
<stop stop-color="#120DA9"/>
<stop offset="1" stop-color="#423BFF"/>
</linearGradient>
<linearGradient id="paint2_linear_346_31" x1="844.091" y1="229" x2="196.484" y2="806.814" gradientUnits="userSpaceOnUse">
<stop stop-color="#120DA9"/>
<stop offset="1" stop-color="#423BFF"/>
</linearGradient>
<linearGradient id="paint3_linear_346_31" x1="844.091" y1="229" x2="196.484" y2="806.814" gradientUnits="userSpaceOnUse">
<stop stop-color="#120DA9"/>
<stop offset="1" stop-color="#423BFF"/>
</linearGradient>
<linearGradient id="paint4_linear_346_31" x1="844.091" y1="229" x2="196.484" y2="806.814" gradientUnits="userSpaceOnUse">
<stop stop-color="#120DA9"/>
<stop offset="1" stop-color="#423BFF"/>
</linearGradient>
<linearGradient id="paint5_linear_346_31" x1="571.302" y1="397.944" x2="570.208" y2="837.711" gradientUnits="userSpaceOnUse">
<stop stop-color="#FF5201"/>
<stop offset="1" stop-color="#FF7332"/>
</linearGradient>
<linearGradient id="paint6_linear_346_31" x1="571.302" y1="397.944" x2="570.208" y2="837.711" gradientUnits="userSpaceOnUse">
<stop stop-color="#FF5201"/>
<stop offset="1" stop-color="#FF7332"/>
</linearGradient>
<linearGradient id="paint7_linear_346_31" x1="571.302" y1="397.944" x2="570.208" y2="837.711" gradientUnits="userSpaceOnUse">
<stop stop-color="#FF5201"/>
<stop offset="1" stop-color="#FF7332"/>
</linearGradient>
<linearGradient id="paint8_linear_346_31" x1="571.302" y1="397.944" x2="570.208" y2="837.711" gradientUnits="userSpaceOnUse">
<stop stop-color="#FF5201"/>
<stop offset="1" stop-color="#FF7332"/>
</linearGradient>
<clipPath id="clip0_346_31">
<rect width="1080" height="1080" rx="540" fill="white"/>
</clipPath>
</defs>
</svg>
